<?xml version="1.0" encoding="utf-8"?>
<!-- Generator: Adobe Illustrator 22.0.1, SVG Export Plug-In . SVG Version: 6.00 Build 0)  -->
<svg version="1.1" id="Layer_1" xmlns="http://www.w3.org/2000/svg" xmlns:xlink="http://www.w3.org/1999/xlink" x="0px" y="0px"
	 width="1200px" height="1200px" viewBox="0 0 1200 1200" style="enable-background:new 0 0 1200 1200;" xml:space="preserve">
<g>
	<path d="M830.4,805.3c2.6,8.1,5.4,16.1,8.2,24.3c2.8,8.2,5.8,16.6,8.1,25c2.9-2.7,5.6-5.7,8.4-8.6l8.3-8.7l8-9
		c2.6-3,5.4-5.9,7.9-9.1c-8.6-0.2-16.9-3-24.9-6C846.4,810.3,838.5,807,830.4,805.3z"/>
	<path d="M813.3,851.8c-8.7-3.5-17.2-6.5-25.5-7.2c-4.5-0.5-3.1,9.1-0.5,21c2.8,11.9,6.5,25.8,8.5,33.1l5.7-4.2l5.5-4.5l11-9
		l10.6-9.4l5.3-4.7l5.1-4.9c-4.3-1.3-8.6-3-12.9-4.7C822,855.4,817.7,853.6,813.3,851.8z"/>
	<path d="M729,872.2c12.2-7.2,24.4-15,36.2-23.7c14.7-11,28.8-23.2,42.1-36.3c13.1-13.3,25.3-27.4,36.3-42.1
		c10.9-14.8,20.5-30.1,29-45.4c16.5-30.9,28-61.7,34.6-88.9c0.8-3.4,1.6-6.7,2.3-10c0.8-3.3,1.5-6.4,2-9.6c0.6-3.1,1.1-6.2,1.6-9.2
		c0.5-3,1.1-5.9,1.4-8.7c0.7-5.6,1.4-10.9,2-15.8c0.4-4.9,0.7-9.4,1-13.5c0.2-2,0.3-4,0.4-5.8c0.1-1.8,0.1-3.5,0.2-5.1
		c0.1-3.2,0.1-5.9,0.2-8c0.1-4.4,0.2-6.7,0.2-6.7s-0.1-2.3-0.2-6.7c-0.1-2.2-0.1-4.9-0.2-8c0-1.6-0.1-3.3-0.2-5.1
		c-0.1-1.8-0.3-3.7-0.4-5.8c-0.3-4.1-0.7-8.6-1-13.5c-0.6-4.9-1.3-10.2-2-15.8c-0.3-2.8-0.9-5.7-1.4-8.7c-0.5-3-1.1-6-1.6-9.2
		c-0.5-3.2-1.3-6.3-2-9.6c-0.8-3.3-1.5-6.6-2.3-10c-6.6-27.2-18.1-58.1-34.6-88.9c-8.5-15.3-18.1-30.6-29-45.4
		c-11-14.7-23.2-28.8-36.3-42.1c-13.3-13.1-27.4-25.3-42.1-36.3c-11.1-8.2-22.6-15.7-34.1-22.6c4.2-3.4,8.5-6.9,12.9-10.1
		c4.6-3.5,9.4-6.9,14.2-10.2c9.6-6.7,19.7-13.2,30-19.1c-5.9-3.8-12-7.3-18-11c-3.1-1.9-6.4-3.5-9.6-5.3l-9.6-5.2
		c-6.5-3.3-13.1-6.3-19.6-9.5c2.1,12,1.3,24.1,0.3,35.9c-0.9,11.4-2.2,22.9-1.6,33.8c-3.4-2-6.8-4-10.2-5.9
		c-30.9-16.5-61.7-28-88.9-34.6c-3.4-0.8-6.7-1.6-10-2.3c-3.3-0.8-6.4-1.5-9.6-2c-3.1-0.6-6.2-1.1-9.2-1.6c-3-0.5-5.9-1.1-8.7-1.4
		c-5.6-0.7-10.9-1.4-15.8-2c-4.9-0.4-9.4-0.7-13.5-1c-2-0.2-4-0.3-5.8-0.4c-1.8-0.1-3.5-0.1-5.1-0.2c-3.2-0.1-5.9-0.1-8-0.2
		c-4.4-0.1-6.7-0.2-6.7-0.2s-2.3,0.1-6.7,0.2c-2.2,0.1-4.9,0.1-8,0.2c-1.6,0-3.3,0.1-5.1,0.2c-1.8,0.1-3.7,0.3-5.8,0.4
		c-4.1,0.3-8.6,0.7-13.5,1c-4.9,0.6-10.2,1.3-15.8,2c-2.8,0.3-5.7,0.9-8.7,1.4c-3,0.5-6,1.1-9.2,1.6c-3.2,0.5-6.3,1.3-9.6,2
		c-3.3,0.8-6.6,1.5-10,2.3c-27.2,6.6-58.1,18.1-88.9,34.6c-15.3,8.5-30.6,18.1-45.4,29c-14.7,11-28.8,23.2-42.1,36.3
		c-13.1,13.3-25.3,27.4-36.3,42.1c-10.9,14.8-20.5,30.1-29,45.4c-16.5,30.9-28,61.7-34.6,88.9c-0.8,3.4-1.6,6.7-2.3,10
		c-0.8,3.3-1.5,6.4-2,9.6c-0.6,3.1-1.1,6.2-1.6,9.2c-0.5,3-1.1,5.9-1.4,8.7c-0.7,5.6-1.4,10.9-2,15.8c-0.4,4.9-0.7,9.4-1,13.5
		c-0.2,2-0.3,4-0.4,5.8c-0.1,1.8-0.1,3.5-0.2,5.1c-0.1,3.2-0.1,5.9-0.2,8c0,0.2,0,0.4,0,0.5c-20.6-8-41.3-17.6-60.8-28.9l-0.5,10.5
		l0,10.5l0.1,10.9c0.1,3.6,0.4,7.3,0.5,10.9l0.6,10.9c0.2,3.6,0.7,7.2,1,10.9c4.6-3.9,9.5-7.2,14.8-10.1c5.3-3,10.7-5.6,16.2-8.1
		c5.4-2.6,10.8-5,16.1-7.7c4.2-2.1,8.1-4.3,12-6.7c0,2-0.1,3.1-0.1,3.1s0.1,2.3,0.2,6.7c0.1,2.2,0.1,4.9,0.2,8
		c0,1.6,0.1,3.3,0.2,5.1c0.1,1.8,0.3,3.7,0.4,5.8c0.3,4.1,0.7,8.6,1,13.5c0.6,4.9,1.3,10.2,2,15.8c0.3,2.8,0.9,5.7,1.4,8.7
		c0.5,3,1.1,6,1.6,9.2c0.5,3.2,1.3,6.3,2,9.6c0.8,3.3,1.5,6.6,2.3,10c6.6,27.2,18.1,58.1,34.6,88.9c8.5,15.3,18.1,30.6,29,45.4
		c11,14.7,23.2,28.8,36.3,42.1c13.3,13.1,27.4,25.3,42.1,36.3c14.8,10.9,30.1,20.5,45.4,29c30.9,16.5,61.7,28,88.9,34.6
		c3.4,0.8,6.7,1.6,10,2.3c3.3,0.8,6.4,1.5,9.6,2c3.1,0.6,6.2,1.1,9.2,1.6c3,0.5,5.9,1.1,8.7,1.4c5.6,0.7,10.9,1.4,15.8,2
		c4.9,0.4,9.4,0.7,13.5,1c2,0.2,4,0.3,5.8,0.4c1.8,0.1,3.5,0.1,5.1,0.2c3.2,0.1,5.9,0.1,8,0.2c4.4,0.1,6.7,0.2,6.7,0.2
		s2.3-0.1,6.7-0.2c2.2-0.1,4.9-0.1,8-0.2c1.6,0,3.3-0.1,5.1-0.2c1.8-0.1,3.7-0.3,5.8-0.4c4.1-0.3,8.6-0.7,13.5-1
		c4.9-0.6,10.2-1.3,15.8-2c2.8-0.3,5.7-0.9,8.7-1.4c3-0.5,6-1.1,9.2-1.6c3.2-0.5,6.3-1.3,9.6-2c3.3-0.8,6.6-1.5,10-2.3
		c27.2-6.6,58.1-18.1,88.9-34.6c1.8-1,3.6-2.1,5.4-3.1c0.7,4.3,1.3,8.6,1.8,12.9c0.7,5.8,1.3,11.6,1.8,17.4
		c1,11.7,1.5,23.5,1.6,35.5l18.5-10.1l18.6-11.5l18-12.3c-11.4-4.2-21.5-10.9-31.3-17.6C745.9,883,737.6,877,729,872.2z M716.9,847
		c1.1,3.6-0.5,8.3-6.3,11.6c-5.5,3-10.2,2-12.8-0.6l-2.5,1.4c0.5,3.1-1.2,6.8-6.1,9c-4.7,2.1-8.4,1.3-10.5-0.8l-2.7,1.3l-2.7,1.1
		c-0.2,2.3-1.9,4.8-5.6,6.2c-3.6,1.4-6.4,0.9-8.1-0.7l-5.4,1.9c-0.4,2.2-2.2,4.3-5.7,5.5c-1.7,0.6-3.3,0.7-4.6,0.5
		c-1.3-0.2-2.4-0.8-3.2-1.6l-6.3,1.8c-0.2,1.9-1.1,3.8-2.7,5.5c-0.8,0.8-1.8,1.6-3,2.3c-1.2,0.6-2.6,1.1-4.2,1.5
		c-6.6,1.5-11.2-0.5-13.2-3.8l-1.2,0.3c-0.8,2.4-3.1,4.6-7.4,5.4c-4.5,0.8-7.6-0.6-9.1-2.8c-1.6,0.3-3.2,0.4-4.8,0.6
		c-1.1,2.1-3.6,3.9-7.6,4.4c-4.3,0.6-7.3-0.8-8.8-3.1l-7.5,0.2c-0.9,0.8-2.3,1.5-4.1,1.6c-2.2,0.2-3.8-0.4-4.8-1.5l-8.7-0.3
		c-1.1,1.6-3.3,2.9-6.6,3c-0.8,0-1.4,0-2.1-0.2V896c-3.4-0.7-5.6-2.5-6.6-4.6l-6.9-0.2c-1,0.8-2.5,1.4-4.5,1.3
		c-2-0.1-3.4-0.9-4.3-1.8l-8.6-0.7c-1.5,2.2-4.5,4-9,3.4c-4.5-0.6-7.1-2.8-8-5.4c-2-0.3-4-0.5-6-0.8c-1.4,1.6-4,2.6-7.5,2
		c-3.6-0.6-5.6-2.5-6.4-4.5c0,0-0.5-0.1-1.2-0.2c-0.7-0.1-1.7-0.3-2.6-0.6c-1.9-0.4-3.8-0.9-3.8-0.9c-1.4,1.3-3.7,2-6.7,1.3
		c-3.1-0.7-4.8-2.3-5.4-4.2l-7.3-2.1c-1.9,2.4-5.7,3.8-10.8,2.3c-5.1-1.7-7.4-5-7.5-8.2l-2.5-0.9c-2,2.7-6.1,4.3-11.5,2.1
		c-5.4-2.1-7.5-5.9-7.1-9.3c-1.4-0.5-2.8-1.2-4.2-1.8c-2.5,2.8-7.1,4-13,1.3c-2.9-1.3-4.8-3.2-6-5.1c-1.1-1.9-1.5-4-1.2-5.8
		l-2.6-1.3c-1.1,1-2.5,1.7-4.2,1.8c-0.9,0.1-1.8,0-2.8-0.2c-1-0.3-2-0.7-3.1-1.3c-4.3-2.4-5.6-5.9-5.1-8.7l-2.4-1.4
		c-0.8,0.6-1.8,1-3,1c-1.2,0-2.5-0.4-3.9-1.3c-2.7-1.8-3.7-4.1-3.3-6c-2.1-1.3-4.2-2.6-6.2-3.9c-1.9,1.1-4.8,1.1-7.9-1.1
		c-3-2.1-4-4.7-3.7-6.9c-1.5-1-2.8-2.1-4.2-3.1c-2.5,2.2-6.8,2.6-11.3-0.9c-2.2-1.7-3.5-3.6-3.9-5.5c-0.5-1.9-0.3-3.6,0.5-5.1
		l-2.9-2.4c-1.4,1.1-3.3,1.6-5.4,1.4c-2.1-0.3-4.5-1.2-6.7-3.4c-4.2-4-4.8-8.4-3.3-11.4l-1.8-1.6c-3.1,1.7-7.5,1.1-11.6-3.2
		c-3.8-4-4.4-8.1-3-11.1l-2-2.2c-3,1.5-7.3,0.9-11.1-3.5c-3.5-4.1-3.4-8.3-1.8-11l-1.8-2.2c-1.5,0.6-3.2,0.8-5,0.2
		c-1.8-0.6-3.7-1.9-5.3-4.2c-3-4.2-2.8-8.1-1.1-10.5c-1.2-1.6-2.5-3.1-3.6-4.8c-2.3,0.5-5.1-0.6-7.3-4c-2-3.2-2-6-0.9-7.9
		c-1.2-1.7-2.2-3.4-3.2-5.1c-3.6,1.1-8.3-0.5-11.6-6.3c-3-5.5-2-10.2,0.6-12.8l-1.4-2.5c-3.1,0.5-6.8-1.2-9-6.1
		c-2.1-4.7-1.3-8.4,0.8-10.5l-1.3-2.7l-1.1-2.7c-2.3-0.2-4.8-1.9-6.2-5.6c-1.4-3.6-0.9-6.4,0.7-8.1l-1.9-5.4
		c-2.2-0.4-4.3-2.2-5.5-5.7c-0.6-1.7-0.7-3.3-0.5-4.6c0.2-1.3,0.8-2.4,1.6-3.2l-1.8-6.3c-1.9-0.2-3.8-1.1-5.5-2.7
		c-0.8-0.8-1.6-1.8-2.3-3c-0.6-1.2-1.1-2.6-1.5-4.2c-1.5-6.6,0.5-11.2,3.8-13.2l-0.3-1.2c-2.4-0.8-4.6-3.1-5.4-7.4
		c-0.8-4.5,0.6-7.6,2.8-9.1c-0.3-1.6-0.4-3.2-0.6-4.8c-2.1-1.1-3.9-3.6-4.4-7.6c-0.6-4.3,0.8-7.3,3.1-8.8l-0.2-7.5
		c-0.8-0.9-1.5-2.3-1.6-4.1c-0.2-2.2,0.4-3.8,1.5-4.8l0.3-8.7c-1.6-1.1-2.9-3.3-3-6.6c0-0.8,0-1.4,0.2-2.1h0.8
		c0.7-3.4,2.5-5.6,4.6-6.6l0.2-6.9c-0.8-1-1.4-2.5-1.3-4.5c0.1-2,0.9-3.4,1.8-4.3l0.7-8.6c-2.2-1.5-4-4.5-3.4-9
		c0.6-4.5,2.8-7.1,5.4-8c0.3-2,0.5-4,0.8-6c-1.6-1.4-2.6-4-2-7.5c0.6-3.6,2.5-5.6,4.5-6.4c0,0,0.1-0.5,0.2-1.2
		c0.1-0.7,0.3-1.7,0.6-2.6c0.4-1.9,0.9-3.8,0.9-3.8c-1.3-1.4-2-3.7-1.3-6.7c0.7-3.1,2.3-4.8,4.2-5.4l2.1-7.3
		c-2.4-1.9-3.8-5.7-2.3-10.8c1.7-5.1,5-7.4,8.2-7.5l0.9-2.5c-2.7-2-4.3-6.1-2.1-11.5c2.1-5.4,5.9-7.5,9.3-7.1
		c0.5-1.4,1.2-2.8,1.8-4.2c-2.8-2.5-4-7.1-1.3-13c1.3-2.9,3.2-4.8,5.1-6c1.9-1.1,4-1.5,5.8-1.2l1.3-2.6c-1-1.1-1.7-2.5-1.8-4.2
		c-0.1-0.9,0-1.8,0.2-2.8c0.3-1,0.7-2,1.3-3.1c2.4-4.3,5.9-5.6,8.7-5.1l1.4-2.4c-0.6-0.8-1-1.8-1-3c0-1.2,0.4-2.5,1.3-3.9
		c1.8-2.7,4.1-3.7,6-3.3c1.3-2.1,2.6-4.2,3.9-6.2c-1.1-1.9-1.1-4.8,1.1-7.9c2.1-3,4.7-4,6.9-3.7c1-1.5,2.1-2.8,3.1-4.2
		c-2.2-2.5-2.6-6.8,0.9-11.3c1.7-2.2,3.6-3.5,5.5-3.9c1.9-0.5,3.6-0.3,5.1,0.5l2.4-2.9c-1.1-1.4-1.6-3.3-1.4-5.4
		c0.3-2.1,1.2-4.5,3.4-6.7c4-4.2,8.4-4.8,11.4-3.3l1.6-1.8c-1.7-3.1-1.1-7.5,3.2-11.6c4-3.8,8.1-4.4,11.1-3l2.2-2
		c-1.5-3-0.9-7.3,3.5-11.1c4.1-3.5,8.3-3.4,11-1.8l2.2-1.8c-0.6-1.5-0.8-3.2-0.2-5c0.6-1.8,1.9-3.7,4.2-5.3c4.2-3,8.1-2.8,10.5-1.1
		c1.6-1.2,3.1-2.5,4.8-3.6c-0.5-2.3,0.6-5.1,4-7.3c3.2-2,6-2,7.9-0.9c1.7-1.2,3.4-2.2,5.1-3.2c-1.1-3.6,0.5-8.3,6.3-11.6
		c5.5-3,10.2-2,12.8,0.6l2.5-1.4c-0.5-3.1,1.2-6.8,6.1-9c4.7-2.1,8.4-1.3,10.5,0.8l2.7-1.3l2.7-1.1c0.2-2.3,1.9-4.8,5.6-6.2
		c3.6-1.4,6.4-0.9,8.1,0.7l5.4-1.9c0.4-2.2,2.2-4.3,5.7-5.5c1.7-0.6,3.3-0.7,4.6-0.5c1.3,0.2,2.4,0.8,3.2,1.6l6.3-1.8
		c0.2-1.9,1.1-3.8,2.7-5.5c0.8-0.8,1.8-1.6,3-2.3c1.2-0.6,2.6-1.1,4.2-1.5c6.6-1.5,11.2,0.5,13.2,3.8l1.2-0.3
		c0.8-2.4,3.1-4.6,7.4-5.4c4.5-0.8,7.6,0.6,9.1,2.8c1.6-0.3,3.2-0.4,4.8-0.6c1.1-2.1,3.6-3.9,7.6-4.4c4.3-0.6,7.3,0.8,8.8,3.1
		l7.5-0.2c0.9-0.8,2.3-1.5,4.1-1.6c2.2-0.2,3.8,0.4,4.8,1.5l8.7,0.3c1.1-1.6,3.3-2.9,6.6-3c0.8,0,1.4,0,2.1,0.2v0.8
		c3.4,0.7,5.6,2.5,6.6,4.6l6.9,0.2c1-0.8,2.5-1.4,4.5-1.3c2,0.1,3.4,0.9,4.3,1.8l8.6,0.7c1.5-2.2,4.5-4,9-3.4c4.5,0.6,7.1,2.8,8,5.4
		c2,0.3,4,0.5,6,0.8c1.4-1.6,4-2.6,7.5-2c3.6,0.6,5.6,2.5,6.4,4.5c0,0,0.5,0.1,1.2,0.2c0.7,0.1,1.7,0.3,2.6,0.6
		c1.9,0.4,3.8,0.9,3.8,0.9c1.4-1.3,3.7-2,6.7-1.3c3.1,0.7,4.8,2.3,5.4,4.2l7.3,2.1c1.9-2.4,5.7-3.8,10.8-2.3c5.1,1.7,7.4,5,7.5,8.2
		l2.5,0.9c2-2.7,6.1-4.3,11.5-2.1c5.4,2.1,7.5,5.9,7.1,9.3c1.4,0.5,2.8,1.2,4.2,1.8c2.5-2.8,7.1-4,13-1.3c2.9,1.3,4.8,3.2,6,5.1
		c1.1,1.9,1.5,4,1.2,5.8l2.6,1.3c1.1-1,2.5-1.7,4.2-1.8c0.9-0.1,1.8,0,2.8,0.2c1,0.3,2,0.7,3.1,1.3c4.3,2.4,5.6,5.9,5.1,8.7l2.4,1.4
		c0.8-0.6,1.8-1,3-1c1.2,0,2.5,0.4,3.9,1.3c2.7,1.8,3.7,4.1,3.3,6c2.1,1.3,4.2,2.6,6.2,3.9c1.9-1.1,4.8-1.1,7.9,1.1
		c3,2.1,4,4.7,3.7,6.9c1.5,1,2.8,2.1,4.2,3.1c2.5-2.2,6.8-2.6,11.3,0.9c2.2,1.7,3.5,3.6,3.9,5.5c0.5,1.9,0.3,3.6-0.5,5.1l2.9,2.4
		c1.4-1.1,3.3-1.6,5.4-1.4c2.1,0.3,4.5,1.2,6.7,3.4c4.2,4,4.8,8.4,3.3,11.4l1.8,1.6c3.1-1.7,7.5-1.1,11.6,3.2c3.8,4,4.4,8.1,3,11.1
		l2,2.2c3-1.5,7.3-0.9,11.1,3.5c3.5,4.1,3.4,8.3,1.8,11l1.8,2.2c1.5-0.6,3.2-0.8,5-0.2c1.8,0.6,3.7,1.9,5.3,4.2
		c3,4.2,2.8,8.1,1.1,10.5c1.2,1.6,2.5,3.1,3.6,4.8c2.3-0.5,5.1,0.6,7.3,4c2,3.2,2,6,0.9,7.9c1.2,1.7,2.2,3.4,3.2,5.1
		c3.6-1.1,8.3,0.5,11.6,6.3c3,5.5,2,10.2-0.6,12.8l1.4,2.5c3.1-0.5,6.8,1.2,9,6.1c2.1,4.7,1.3,8.4-0.8,10.5l1.3,2.7l1.1,2.7
		c2.3,0.2,4.8,1.9,6.2,5.6c1.4,3.6,0.9,6.4-0.7,8.1l1.9,5.4c2.2,0.4,4.3,2.2,5.5,5.7c0.6,1.7,0.7,3.3,0.5,4.6
		c-0.2,1.3-0.8,2.4-1.6,3.2l1.8,6.3c1.9,0.2,3.8,1.1,5.5,2.7c0.8,0.8,1.6,1.8,2.3,3c0.6,1.2,1.1,2.6,1.5,4.2
		c1.5,6.6-0.5,11.2-3.8,13.2l0.3,1.2c2.4,0.8,4.6,3.1,5.4,7.4c0.8,4.5-0.6,7.6-2.8,9.1c0.3,1.6,0.4,3.2,0.6,4.8
		c2.1,1.1,3.9,3.6,4.4,7.6c0.6,4.3-0.8,7.3-3.1,8.8l0.2,7.5c0.8,0.9,1.5,2.3,1.6,4.1c0.2,2.2-0.4,3.8-1.5,4.8l-0.3,8.7
		c1.6,1.1,2.9,3.3,3,6.6c0,0.8,0,1.4-0.2,2.1h-0.8c-0.7,3.4-2.5,5.6-4.6,6.6l-0.2,6.9c0.8,1,1.4,2.5,1.3,4.5c-0.1,2-0.9,3.4-1.8,4.3
		l-0.7,8.6c2.2,1.5,4,4.5,3.4,9c-0.6,4.5-2.8,7.1-5.4,8c-0.3,2-0.5,4-0.8,6c1.6,1.4,2.6,4,2,7.5c-0.6,3.6-2.5,5.6-4.5,6.4
		c0,0-0.1,0.5-0.2,1.2c-0.1,0.7-0.3,1.7-0.6,2.6c-0.4,1.9-0.9,3.8-0.9,3.8c1.3,1.4,2,3.7,1.3,6.7c-0.7,3.1-2.3,4.8-4.2,5.4l-2.1,7.3
		c2.4,1.9,3.8,5.7,2.3,10.8c-1.7,5.1-5,7.4-8.2,7.5l-0.9,2.5c2.7,2,4.3,6.1,2.1,11.5c-2.1,5.4-5.9,7.5-9.3,7.1
		c-0.5,1.4-1.2,2.8-1.8,4.2c2.8,2.5,4,7.1,1.3,13c-1.3,2.9-3.2,4.8-5.1,6c-1.9,1.1-4,1.5-5.8,1.2l-1.3,2.6c1,1.1,1.7,2.5,1.8,4.2
		c0.1,0.9,0,1.8-0.2,2.8c-0.3,1-0.7,2-1.3,3.1c-2.4,4.3-5.9,5.6-8.7,5.1l-1.4,2.4c0.6,0.8,1,1.8,1,3c0,1.2-0.4,2.5-1.3,3.9
		c-1.8,2.7-4.1,3.7-6,3.3c-1.3,2.1-2.6,4.2-3.9,6.2c1.1,1.9,1.1,4.8-1.1,7.9c-2.1,3-4.7,4-6.9,3.7c-1,1.5-2.1,2.8-3.1,4.2
		c2.2,2.5,2.6,6.8-0.9,11.3c-1.7,2.2-3.6,3.5-5.5,3.9c-1.9,0.5-3.6,0.3-5.1-0.5l-2.4,2.9c1.1,1.4,1.6,3.3,1.4,5.4
		c-0.3,2.1-1.2,4.5-3.4,6.7c-4,4.2-8.4,4.8-11.4,3.3l-1.6,1.8c1.7,3.1,1.1,7.5-3.2,11.6c-4,3.8-8.1,4.4-11.1,3l-2.2,2
		c1.5,3,0.9,7.3-3.5,11.1c-4.1,3.5-8.3,3.4-11,1.8l-2.2,1.8c0.6,1.5,0.8,3.2,0.2,5c-0.6,1.8-1.9,3.7-4.2,5.3
		c-4.2,3-8.1,2.8-10.5,1.1c-1.6,1.2-3.1,2.5-4.8,3.6c0.5,2.3-0.6,5.1-4,7.3c-3.2,2-6,2-7.9,0.9C720.4,844.9,718.6,845.9,716.9,847z"
		/>
	<path d="M878.5,787.4c1.7,3.8,3.2,7.6,4.5,11.6c1.2,3.9,2.2,7.9,2.9,12c10.3-12.6,19.8-25.9,28.9-39.5c-16.3-1.8-32.1-5.8-47.7-5.9
		C871.1,772.6,875.1,779.9,878.5,787.4z"/>
	<path d="M915.9,715.5c-9.9-0.7-19.7-1.8-29.6-2.1c13.3,15,28.1,30.5,33.5,50.3l0.8-1.4c2.4-3.9,4.9-7.7,7.2-11.6l6.8-11.9
		c1.1-2,2.3-4,3.4-6l3.1-6.1l6.2-12.3c-0.4,0.2-0.8,0.4-1.3,0.5C935.9,716.5,925.8,716.2,915.9,715.5z"/>
	<path d="M946.6,558.4c6.5,4.4,12.7,8.8,19.1,13.3c6.4,4.5,12.8,9.2,19.2,14.1c0.7-7.3,1.5-14.7,2.1-22.1c0.3-7.4,0.6-14.8,0.8-22.2
		C973,545.5,960,552.7,946.6,558.4z"/>
	<path d="M937.5,612.2c5.7,5.8,12.1,11.5,18,17.3c5.9,5.9,11.6,12,16.6,18.9c2.3-8.5,4.8-17,6.4-25.7l2.7-13l2.1-13.1
		c-6.6,4.6-14.2,7.6-22,10C953.5,609,945.3,610.6,937.5,612.2z"/>
	<path d="M928.6,662.1c-4.5,0.5-9.1,0.9-13.7,1.3c5.3,7.6,11.9,14.6,18.2,21.9c6.2,7.3,12,14.9,16,24c0.1,0.2,0.1,0.4,0.1,0.6
		l5.8-13c1-2.2,1.8-4.4,2.7-6.6l2.6-6.6l2.6-6.6l1.3-3.3l1.1-3.4l4.4-13.5c-9.2,1.3-18.4,2.5-27.5,3.6
		C937.6,661,933.1,661.6,928.6,662.1z"/>
	<path d="M504,955.3c-2-5.4-3.8-10.7-5.9-15.9c-2.1-5.3-4.4-10.4-7.1-15.1c-5.7,8.9-11.6,18.1-17.5,27c-5.9,8.9-12,18-17.9,27.2
		l14.8,2.7c5,0.7,9.9,1.4,14.9,2l7.4,1c2.5,0.3,5,0.4,7.5,0.7l15,1.2c1.4,0.1,2.7,0.1,4.1,0.1c-3.5-4.5-6.3-9.7-8.7-14.9
		C508,966.1,505.9,960.7,504,955.3z"/>
	<path d="M429.3,912.5c-7.9,8-15.8,16-24,23.8c-8.2,7.8-16.9,15.7-26.1,22.4c5.6,2.1,11.4,3.6,17.2,5.3c4,1.1,7.9,2.4,11.9,3.5
		l12,3.1c7.9,2.3,16,3.8,24.1,5.7c-2.6-10.5-5.4-21.2-8.1-32C433.7,933.7,431.3,923,429.3,912.5z"/>
	<path d="M559.8,923.9c-6,9.3-10.6,19.6-15,30.4c-2.2,5.5-4.4,10.9-6.6,16.3c-2.3,5.4-4.6,10.7-7.2,15.9l6.9,0.2
		c2.3,0,4.6-0.1,6.9-0.1l13.7-0.4l3.4-0.1l3.4-0.3l6.8-0.6c4.6-0.4,9.1-0.7,13.7-1.2c-5-9.8-9-20.3-12.9-30.4
		C568.9,943.3,564.8,933.2,559.8,923.9z"/>
	<path d="M341.5,910.7c-8.3,5.5-16.4,11-25,15.9c14.9,12.5,32.9,21.1,51.1,28.1c0.6-9.6,1.2-19.8,1.1-29.6c0-9.9-0.7-19.5-2.2-28.7
		C358.1,900.1,349.8,905.2,341.5,910.7z"/>
	<path d="M681.5,902.8c0,10.2-0.4,20.8-1.6,30.9c-1.2,10.2-3.1,20.4-5.9,30.6l12.2-4.4c2-0.8,4.1-1.4,6.1-2.3l6-2.5l11.9-5
		c3.9-1.8,7.8-3.7,11.7-5.6C710.7,928.6,695.9,915,681.5,902.8z"/>
	<path d="M643.4,948.3c-5.5-7.4-10.4-15.3-15.6-22.7c-2.5,4.7-5.1,9.5-7.8,14.3c-2.8,4.7-5.5,9.4-8.3,14.1
		c-5.8,9.8-11.5,19.5-17,28.9c11.4-1.3,22.7-3.7,34-5.9l16.8-4.1l4.2-1l4.1-1.2l8.3-2.5C654.8,962.4,648.8,955.6,643.4,948.3z"/>
	<path d="M145.6,679.2c6.6-5.5,13.4-10.7,19-16.8c-8.5-1.7-16.7-3.4-25.2-5c-8.5-1.7-17.1-3.4-25.7-5.5l3.3,11.6l1.6,5.8l0.8,2.9
		l0.9,2.9l3.8,11.4l1.9,5.7c0.7,1.9,1.4,3.8,2.1,5.6C132.5,690.4,139,684.7,145.6,679.2z"/>
	<path d="M151.9,605.9c1.3-1.8-0.4-3.6-3.8-5.4c-3.3-1.8-8.5-3.7-14.2-5.5c-11.5-3.6-25.7-7.3-33-9.2c2.6,18.8,5.6,37.5,10.2,55.9
		c6.6-6.1,14.3-11.6,21.6-17.3C140.2,618.6,147.1,612.7,151.9,605.9z"/>
	<path d="M156,713c-8.2-0.8-16.5-2.3-24.1-5.3c0.7,1.9,1.4,3.8,2.2,5.7l2.4,5.6l4.8,11.3c1.6,3.8,3.5,7.4,5.2,11.1
		c1.8,3.7,3.5,7.4,5.3,11.1c9.6-13.2,21.2-25,28.9-38.4C172.4,714,164.2,713.8,156,713z"/>
	<path d="M216.2,756.6c-9.8,2-19.9,4.2-30,5.4c-5.1,0.6-10.3,0.9-15.2,0.7c-5-0.2-10-0.9-15-2.1l0.8,1.4c4.1,8.2,8.8,16,13.4,23.9
		l1.7,3l1.9,2.9l3.7,5.8c2.5,3.8,4.9,7.8,7.6,11.5c0-0.4,0-0.9,0.2-1.3c3.5-9.5,8.9-18.1,14.4-26.4C205.3,773,211.1,765,216.2,756.6
		z"/>
	<path d="M320.3,886.4c-7.2,3.4-14.2,6.7-21.2,10c-7.1,3.2-14.3,6.4-21.7,9.4l8.9,6.6c3,2.2,6.1,4.2,9.2,6.2l9.3,6.1
		c3.1,2,6.3,3.8,9.5,5.7c2-7.3,3.1-14.7,3.8-21.9C318.8,901.2,319.4,893.7,320.3,886.4z"/>
	<path d="M254.3,858.5c-8.1,2.3-16.2,4-24.7,4.9c3.1,3.2,6.1,6.3,9.3,9.5l9.7,9l4.9,4.5c1.6,1.5,3.4,2.9,5.1,4.3l10.2,8.5
		c-0.6-8.1,0.6-16.2,2.5-24.1c0.9-4,2.1-7.9,3.3-11.8c1.2-3.9,2.5-7.8,3.8-11.6C270.4,853.7,262.4,856.2,254.3,858.5z"/>
	<path d="M217.3,811.2c-2.4,0.5-4.8,0.9-7.2,1.3c-2.4,0.3-4.7,0.6-7.1,0.8c-4.8,0.4-9.6,0.4-14.5-0.2c-0.2,0-0.4-0.2-0.6-0.2
		l8.3,11.5l8.8,11.1l4.4,5.6l4.7,5.4l9.4,10.7c7.1-17.3,14.2-34.2,21.8-50.6C236.1,807.2,226.8,809.4,217.3,811.2z"/>
	<path d="M180.8,302.1c5.7,0.5,11.5,1.5,17.1,2.5c5.7,1,11.3,2.1,16.8,2.9c5.6,0.8,10.9,1.2,16.5,1.3c-4.8-9.4-9.6-19-14.5-28.7
		c-2.4-4.9-4.8-9.7-7.2-14.6c-2.5-4.9-4.9-9.8-7.3-14.6c-6.7,7.4-12.8,15.4-19,23.2c-3,4-5.9,8.1-8.8,12.1l-4.4,6.1l-4.1,6.3
		l-2.2,3.4C169.4,301.6,175.1,301.6,180.8,302.1z"/>
	<path d="M267.9,245.2c-1.5-5.5-2.9-10.9-4.2-16.4c-1.3-5.5-2.6-11.1-3.7-16.7c-1.1-5.6-2.1-11.4-2.7-17.1c-2.3,1.9-4.5,4-6.6,6.1
		c-2.2,2.1-4.3,4.1-6.5,6.1l-4.5,4.2c-1.5,1.4-2.9,2.9-4.4,4.4l-8.8,8.7c-3,2.8-5.7,6-8.5,8.9l-8.5,9c21.6,6.2,42.4,11.7,62.8,19
		C270.8,256,269.4,250.6,267.9,245.2z"/>
	<path d="M178.3,340.5c-7-9.2-14.5-18.3-21-28.2l-6.8,11.9c-1.1,2-2.3,4-3.4,6l-3.1,6.1l-6.2,12.3l-5.6,12.6
		c22.1,1.2,43.5,6.8,65.1,7.5C192.2,358.9,185.2,349.6,178.3,340.5z"/>
	<path d="M316.5,156.7c-9.2,3.2-17.7,8-26.1,13c-4.2,2.5-8.1,5.5-12.1,8.3l-5.9,4.4c-2,1.5-3.8,3.1-5.7,4.7
		c16.1,10.7,33.6,21.7,51,28.1C319.8,196.8,316.2,176.2,316.5,156.7z"/>
	<path d="M128.8,467.8c-8.3-6.1-16.5-12.9-23.6-20.4c-1,4.2-1.6,8.5-2.3,12.8l-2,12.8c-0.6,4.3-0.9,8.6-1.4,12.9
		c-0.4,4.3-1,8.6-1.2,12.9c19.2-1.6,38.9-7.7,56.2-14.1C145.6,479.4,137.1,473.9,128.8,467.8z"/>
	<path d="M161.7,426.7c-5.7-9.1-11-18.4-16.6-28c-5.3-9.5-10.7-19.3-16.5-29.2c-8.7,21.3-15.6,43.4-20.8,65.8
		c8.3-3.6,17.5-5.3,26.6-6.4C143.5,427.9,152.7,427.5,161.7,426.7z"/>
	<path d="M621.3,157.2c11.4-12.4,22.4-26.4,34.5-38.8c-15.5-4.3-31.2-7.6-47-10.5c4.1,7.7,5.9,16.1,7.3,24.5
		C617.6,140.8,618.8,149.1,621.3,157.2z"/>
	<path d="M672.5,162.2c1,4.3,2.3,8.3,4,12.2c1.8,4.1,9.5-1.9,18.5-10.2c4.5-4.2,9.2-8.7,13.6-13c4.3-4.2,8.2-8.2,10.8-10.8
		c-8.7-3.9-17.6-7.1-26.5-10.4c-2.2-0.9-4.4-1.6-6.7-2.3l-6.8-2.2l-6.8-2.2l-3.4-1.1l-3.4-0.9c2,8.6,2.9,18.4,4.2,27.5
		C670.8,153.3,671.5,157.9,672.5,162.2z"/>
	<path d="M568.5,145.4c4.2-7.1,8.4-14.2,13.2-21c4.8-6.6,10.2-12.8,16.6-18.1l-12.1-1.8c-4-0.6-8.1-0.9-12.2-1.4l-12.2-1.3
		l-12.2-0.7c3.3,7.4,6.1,15,9,22.5C561.6,131.1,564.7,138.7,568.5,145.4z"/>
	<path d="M493.8,114.8c2.5,4.3,4.8,8.8,7,13.3c4.4,9,8.3,18.2,13,26.8c1.6-4.8,3.2-9.7,4.8-14.6c1.7-4.8,3.5-9.5,5.6-14.2
		c4.1-9.2,9.2-18.2,16.4-25.5l-1.6-0.1l-13.7-0.2c-4.6,0-9.1-0.2-13.7,0c-9.1,0.3-18.3,0.4-27.4,1.4c0.4,0.2,0.8,0.5,1.1,0.8
		C488.4,106.4,491.2,110.6,493.8,114.8z"/>
	<path d="M351.3,156.7c0.7-7.9,1.6-15.6,2.7-23.5c-3.4,1.5-6.8,2.9-10.2,4.4l-10,4.9c-3.3,1.6-6.7,3.2-9.9,5l-9.7,5.4
		c10.7,10.9,23.2,18.1,35.1,27.2C350,172.1,350.7,164.3,351.3,156.7z"/>
	<path d="M400.5,160.9c2.2-7.8,4-15.9,6.1-24.1c1.1-4,2.2-8.2,3.5-12.2c1.3-3.9,2.8-7.9,4.6-11.7c-8.6,1.9-17,4.6-25.5,7.2
		c-4.3,1.2-8.4,2.8-12.6,4.3l-12.5,4.5C378.7,136.1,389.9,149.1,400.5,160.9z"/>
	<path d="M456.1,155c1.9-4.3,3.6-8.6,5.2-13.1c1.6-4.6,3.1-9,4.7-13.5c1.6-4.5,3.3-9.1,5.4-13.5c2.1-4.4,4.5-8.5,7.5-12.4
		c0.1-0.2,0.3-0.3,0.5-0.4l-7.1,0.6c-2.4,0.2-4.7,0.6-7,0.9l-14.1,1.9c-4.7,0.7-9.3,1.7-14,2.5c-4.7,0.9-9.4,1.6-14,2.9
		c5.7,7.2,11.3,14.6,16.8,22C445.5,140.3,450.9,147.6,456.1,155z"/>
	<path d="M920,358.2c-1.8,2.3-3.7,4.5-5.5,6.7c-7.5,8.8-15,17.3-20.2,26.7c10.5,0.5,21.2,1.1,32,1.8c11.1,0.7,21.9,1.3,32.6,1.9
		l-2.4-7.1l-2.7-7c-1.8-4.7-3.6-9.4-5.5-14c-4.1-9.1-7.9-18.4-12.7-27.2l-1.9-3.6c-2.3,5.4-5.2,10.3-8.5,15
		C923.5,353.7,921.8,355.9,920,358.2z"/>
	<path d="M950.6,417.7c-3.9,3.8-7.9,7.6-11.9,11.4c-4,3.8-7.9,7.5-11.8,11.1c-4,3.6-8.1,7.2-12.2,10.7c10.7,2.9,21.8,5.7,32.7,8.9
		c10.8,3.2,21.7,6.8,32.4,11.5c-1.3-5.9-2.6-11.7-3.9-17.5c-2-8-4.1-16-6.2-24l-3.5-11.9c-1.2-3.9-2.2-7.9-3.6-11.8
		c-2,1.9-3.9,3.8-5.9,5.8C954.6,413.8,952.6,415.7,950.6,417.7z"/>
	<path d="M868.5,319c-3.3,4.4-6.4,8.8-9.2,13.4c5.5,0.3,11.1,0.1,16.8-0.4c5.7-0.5,11.5-1.2,17.1-1.9c11.4-1.5,23.1-3.4,34.8-4.1
		l-6.9-11.9l-1.7-3l-1.9-2.9l-3.7-5.8c-2.5-3.8-4.9-7.7-7.6-11.5l-8-11.1c-6,9.3-13,17.9-19.8,26.4
		C875.1,310.4,871.7,314.7,868.5,319z"/>
	<path d="M931.9,513.4c3.8,2.8,7.9,5.3,12.1,7.7c4.1,2.4,8.4,4.6,12.8,6.9c8.8,4.4,17.9,8.7,26.5,13.7c2.8-19.1,2.1-39-1.4-58.3
		c-8.8,4.3-17.6,8.9-26,13.8C947.4,502.1,939.1,507.5,931.9,513.4z"/>
	<path d="M780.1,237.5c18-10.4,36.5-18.9,57.1-24.2l-9.9-8.3c-3.3-2.7-6.6-5.6-10.1-8.1c-6.9-5.2-13.7-10.4-21-15.1
		c-4.2,8.7-7.3,18.1-9.8,27.4C783.8,218.7,781.7,228.3,780.1,237.5z"/>
	<path d="M834.8,272.3c2.7,0,5.4,0,8-0.1c5.5,0,11,0,16.4,0c5.6,0,11,0.1,16.6,0.2c5.6,0.1,11.2,0.1,16.9,0.1L882,259.1l-11.4-12.9
		l-2.9-3.2l-3-3.1l-6-6.2l-6.1-6.1l-6.3-5.9c-1.2,9.1-4.1,17.7-7.8,26.2c-3.7,8.4-7.9,16.6-11.8,24.8
		C829.4,272.5,832.1,272.4,834.8,272.3z"/>
	<path d="M731.7,828.6c-0.4-2.3,0.6-5,3.6-7.1c2.9-2.1,5.7-2.1,7.7-1.1c1.4-1,2.7-2.1,4.1-3.2c-1.5-3-0.9-7.2,3.4-10.6
		c2.1-1.6,4.1-2.4,6-2.6c1.8-0.2,3.5,0.3,4.8,1.3l2.8-2.5c-0.8-1.6-1.1-3.5-0.7-5.5c0.4-2,1.7-4,3.8-6.1c4-3.8,8.3-4.1,11.3-2.5
		l1.7-1.7c-1.5-3-1.3-7.4,2.6-11.5c3.6-3.8,7.7-4.5,10.7-3.5l1.8-2.3c-1.9-2.8-2-7,1.6-11.1c3.3-3.9,7-4.8,10-3.8l1.6-2.3
		c-1-1.3-1.6-2.9-1.5-4.7c0.1-1.8,0.8-3.8,2.3-6c2.8-4,6.4-5,9.3-4.2c1-1.6,2.2-3.2,3.1-4.9c-1.4-2-1.6-4.9,0.5-8.1
		c1.9-3,4.5-4.1,6.7-3.9c1-1.7,1.9-3.4,2.8-5.2c-2.8-2.6-3.8-7.3-0.8-12.6c2.7-5.1,6.8-6.9,10.4-6.3l1.2-2.5
		c-2.2-2.1-3.1-5.8-1.1-10.4c2-4.4,5.3-6.1,8.3-5.9l1.1-2.6l1-2.7c-1.6-1.8-2.2-4.5-0.9-8c1.3-3.3,3.6-4.9,5.9-5.3l1.7-5.2
		c-1.5-1.6-2.1-4.2-1-7.5c0.5-1.6,1.4-2.8,2.3-3.7c0.9-0.9,1.9-1.5,3-1.7l1.7-6.1c-1.5-1.1-2.7-2.8-3.3-4.9c-0.3-1-0.5-2.2-0.4-3.5
		c0-1.3,0.1-2.6,0.4-4.1c1.4-6,5.2-9,9.1-9.6l0.3-1.1c-2-1.6-3.2-4.5-2.5-8.4c0.7-4.2,3.1-6.5,5.7-7.2c0.4-1.5,0.5-3.1,0.8-4.6
		c-1.8-1.7-2.9-4.4-2.4-8.1c0.5-4.1,2.6-6.5,4.9-7.6l0.9-7.2c-0.7-1-1.1-2.4-1-4.1c0.1-2.1,1.1-3.6,2.1-4.5l0.7-8.5
		c-1.6-1.2-2.7-3.3-2.6-6.4c0-0.7,0.1-1.4,0.3-2h0.8c0.5-3.3,2.2-5.4,4.2-6.5l-0.1-6.8c-0.9-0.9-1.5-2.3-1.5-4.3
		c-0.1-1.9,0.3-3.4,1.1-4.4l-0.6-8.5c-2.5-1.1-4.4-3.6-5-7.9c-0.6-4.3,1-7.3,3.2-8.9c-0.3-2-0.4-3.9-0.8-5.9c-2-0.9-3.8-2.9-4.4-6.3
		c-0.6-3.5,0.4-6,2-7.5c0,0-0.1-0.5-0.2-1.2c-0.1-0.7-0.3-1.7-0.5-2.6c-0.4-1.9-0.8-3.7-0.8-3.7c-1.8-0.7-3.4-2.4-4-5.3
		c-0.7-3,0.1-5.3,1.3-6.7l-2-7.2c-3.1-0.4-6.2-2.7-7.6-7.5c-1.6-4.8-0.4-8.5,2-10.6l-0.8-2.5c-3.4,0.1-6.9-2-9-7.1
		c-2-5.2-0.6-9.2,2-11.4c-0.5-1.4-1.2-2.8-1.8-4.1c-3.7,0.4-8-1.7-10.5-7.3c-1.2-2.8-1.7-5.2-1.5-7.4c0.2-2.2,1.2-4,2.5-5.3
		l-1.3-2.6c-1.4,0.2-3,0-4.4-0.9c-0.7-0.4-1.4-1-2.1-1.7c-0.7-0.7-1.4-1.6-2-2.6c-2.4-4.1-1.8-7.7,0.1-9.9l-1.4-2.4
		c-1,0.2-2,0-3-0.6c-1-0.5-2.1-1.4-2.9-2.8c-1.7-2.7-1.6-5.1-0.5-6.7c-1.3-2-2.6-4.1-4-6.1c-2.3,0.4-5-0.6-7.1-3.6
		c-2.1-2.9-2.1-5.7-1.1-7.7c-1-1.4-2.1-2.7-3.2-4.1c-3,1.5-7.2,0.9-10.6-3.4c-1.6-2.1-2.4-4.1-2.6-6c-0.2-1.8,0.3-3.5,1.3-4.8
		l-2.5-2.8c-1.6,0.8-3.5,1.1-5.5,0.7c-2-0.4-4-1.7-6.1-3.8c-3.8-4-4.1-8.3-2.5-11.3l-1.7-1.7c-3,1.5-7.4,1.3-11.5-2.6
		c-3.8-3.6-4.5-7.7-3.5-10.7l-2.3-1.8c-2.8,1.9-7,2-11.1-1.6c-3.9-3.3-4.8-7-3.8-10l-2.3-1.6c-1.3,1-2.9,1.6-4.7,1.5
		c-1.8-0.1-3.8-0.8-6-2.3c-4-2.8-5-6.4-4.2-9.3c-1.6-1-3.2-2.2-4.9-3.1c-2,1.4-4.9,1.6-8.1-0.5c-3-1.9-4.1-4.5-3.9-6.7
		c-1.7-1-3.4-1.9-5.2-2.8c-2.6,2.8-7.3,3.8-12.6,0.8c-5.1-2.7-6.9-6.8-6.3-10.4l-2.5-1.2c-2.1,2.2-5.8,3.1-10.4,1.1
		c-4.4-2-6.1-5.3-5.9-8.3l-2.6-1.1l-2.7-1c-1.8,1.6-4.5,2.2-8,0.9c-3.3-1.3-4.9-3.6-5.3-5.9l-5.2-1.7c-1.6,1.5-4.2,2.1-7.5,1
		c-1.6-0.5-2.8-1.4-3.7-2.3c-0.9-0.9-1.5-1.9-1.7-3l-6.1-1.7c-1.1,1.5-2.8,2.7-4.9,3.3c-1,0.3-2.2,0.5-3.5,0.4
		c-1.3,0-2.6-0.1-4.1-0.4c-6-1.4-9-5.2-9.6-9.1l-1.1-0.3c-1.6,2-4.5,3.2-8.4,2.5c-4.2-0.7-6.5-3.1-7.2-5.7c-1.5-0.4-3.1-0.5-4.6-0.8
		c-1.7,1.8-4.4,2.9-8.1,2.4c-4.1-0.5-6.5-2.6-7.6-4.9l-7.2-0.9c-1,0.7-2.4,1.1-4.1,1c-2.1-0.1-3.6-1.1-4.5-2.1l-8.5-0.7
		c-1.2,1.6-3.3,2.7-6.4,2.6c-0.7,0-1.4-0.1-2-0.3v-0.8c-3.3-0.5-5.4-2.2-6.5-4.2l-6.8,0.1c-0.9,0.9-2.3,1.5-4.3,1.5
		c-1.9,0.1-3.4-0.3-4.4-1.1l-8.5,0.6c-1.1,2.5-3.6,4.4-7.9,5c-4.3,0.6-7.3-1-8.9-3.2c-2,0.3-3.9,0.4-5.9,0.8c-0.9,2-2.9,3.8-6.3,4.4
		c-3.5,0.6-6-0.4-7.5-2c0,0-0.5,0.1-1.2,0.2c-0.7,0.1-1.7,0.3-2.6,0.5c-1.9,0.4-3.7,0.8-3.7,0.8c-0.7,1.8-2.4,3.4-5.3,4
		c-3,0.7-5.3-0.1-6.7-1.3l-7.2,2c-0.4,3.1-2.7,6.2-7.5,7.6c-4.8,1.6-8.5,0.4-10.6-2l-2.5,0.8c0.1,3.4-2,6.9-7.1,9
		c-5.2,2-9.2,0.6-11.4-2c-1.4,0.5-2.8,1.2-4.1,1.8c0.4,3.7-1.7,8-7.3,10.5c-2.8,1.2-5.2,1.7-7.4,1.5c-2.2-0.2-4-1.2-5.3-2.5
		l-2.6,1.3c0.2,1.4,0,3-0.9,4.4c-0.4,0.7-1,1.4-1.7,2.1c-0.7,0.7-1.6,1.4-2.6,2c-4.1,2.4-7.7,1.8-9.9-0.1l-2.4,1.4c0.2,1,0,2-0.5,3
		c-0.5,1-1.4,2.1-2.8,2.9c-2.7,1.7-5.1,1.6-6.7,0.5c-2,1.3-4.1,2.6-6.1,4c0.4,2.3-0.6,5-3.6,7.1c-2.9,2.1-5.7,2.1-7.7,1.1
		c-1.4,1-2.7,2.1-4.1,3.2c1.5,3,0.9,7.2-3.4,10.6c-2.1,1.6-4.1,2.4-6,2.6c-1.8,0.2-3.5-0.3-4.8-1.3l-2.8,2.5
		c0.8,1.6,1.1,3.5,0.7,5.5c-0.4,2-1.7,4-3.8,6.1c-4,3.8-8.3,4.1-11.3,2.5l-1.7,1.7c1.5,3,1.3,7.4-2.6,11.5
		c-3.6,3.8-7.7,4.5-10.7,3.5l-1.8,2.3c1.9,2.8,2,7-1.6,11.1c-3.3,3.9-7,4.8-10,3.8l-1.6,2.3c1,1.3,1.6,2.9,1.5,4.7
		c-0.1,1.8-0.8,3.8-2.3,6c-2.8,4-6.4,5-9.3,4.2c-1,1.6-2.2,3.2-3.1,4.9c1.4,2,1.6,4.9-0.5,8.1c-1.9,3-4.5,4.1-6.7,3.9
		c-1,1.7-1.9,3.4-2.8,5.2c2.8,2.6,3.8,7.3,0.8,12.6c-2.7,5.1-6.8,6.9-10.4,6.3l-1.2,2.5c2.2,2.1,3.1,5.8,1.1,10.4
		c-2,4.4-5.3,6.1-8.3,5.9l-1.1,2.6l-1,2.7c1.6,1.8,2.2,4.5,0.9,8c-1.3,3.3-3.6,4.9-5.9,5.3l-1.7,5.2c1.5,1.6,2.1,4.2,1,7.5
		c-0.5,1.6-1.4,2.9-2.3,3.7c-0.9,0.9-1.9,1.5-3,1.7l-1.7,6.1c1.5,1.1,2.7,2.8,3.3,4.9c0.3,1,0.5,2.2,0.4,3.5c0,1.3-0.1,2.6-0.4,4.1
		c-1.4,6-5.2,9-9.1,9.6l-0.3,1.1c2,1.6,3.2,4.5,2.5,8.4c-0.7,4.2-3.1,6.5-5.7,7.2c-0.4,1.5-0.5,3.1-0.8,4.6c1.8,1.7,2.9,4.4,2.4,8.1
		c-0.5,4.1-2.6,6.5-4.9,7.6l-0.9,7.2c0.7,1,1.1,2.4,1,4.1c-0.1,2.1-1.1,3.6-2.1,4.5l-0.7,8.5c1.6,1.2,2.7,3.3,2.6,6.4
		c0,0.7-0.1,1.4-0.3,2H199c-0.5,3.3-2.2,5.4-4.2,6.5l0.1,6.8c0.9,0.9,1.5,2.3,1.5,4.3c0.1,1.9-0.3,3.4-1.1,4.4l0.6,8.5
		c2.5,1.1,4.4,3.6,5,7.9c0.6,4.3-1,7.3-3.2,8.9c0.3,2,0.4,3.9,0.8,5.9c2,0.9,3.8,2.9,4.4,6.3c0.6,3.5-0.4,6-2,7.5
		c0,0,0.1,0.5,0.2,1.2c0.1,0.7,0.3,1.7,0.5,2.6c0.4,1.9,0.8,3.7,0.8,3.7c1.8,0.7,3.4,2.4,4,5.3c0.7,3-0.1,5.3-1.3,6.7l2,7.2
		c3.1,0.4,6.2,2.7,7.6,7.5c1.6,4.8,0.4,8.5-2,10.6l0.8,2.5c3.4-0.1,6.9,2,9,7.1c2,5.2,0.6,9.2-2,11.4c0.5,1.4,1.2,2.8,1.8,4.1
		c3.7-0.4,8,1.7,10.5,7.3c1.2,2.8,1.7,5.2,1.5,7.4c-0.2,2.2-1.2,4-2.5,5.3l1.3,2.6c1.4-0.2,3,0,4.4,0.9c0.7,0.4,1.4,1,2.1,1.7
		c0.7,0.7,1.4,1.6,2,2.6c2.4,4.1,1.8,7.7-0.1,9.9l1.4,2.4c1-0.2,2,0,3,0.6c1,0.5,2.1,1.4,2.9,2.8c1.7,2.7,1.6,5.1,0.5,6.7
		c1.3,2,2.6,4.1,4,6.1c2.3-0.4,5,0.6,7.1,3.6c2.1,2.9,2.1,5.7,1.1,7.7c1,1.4,2.1,2.7,3.2,4.1c3-1.5,7.2-0.9,10.6,3.4
		c1.6,2.1,2.4,4.1,2.6,6c0.2,1.8-0.3,3.5-1.3,4.8l2.5,2.8c1.6-0.8,3.5-1.1,5.5-0.7c2,0.4,4,1.7,6.1,3.8c3.8,4,4.1,8.3,2.5,11.3
		l1.7,1.7c3-1.5,7.4-1.3,11.5,2.6c3.8,3.6,4.5,7.7,3.5,10.7l2.3,1.8c2.8-1.9,7-2,11.1,1.6c3.9,3.3,4.8,7,3.8,10l2.3,1.6
		c1.3-1,2.9-1.6,4.7-1.5c1.8,0.1,3.8,0.8,6,2.3c4,2.8,5,6.4,4.2,9.3c1.6,1,3.2,2.2,4.9,3.1c2-1.4,4.9-1.6,8.1,0.5
		c3,1.9,4.1,4.5,3.9,6.7c1.7,1,3.4,1.9,5.2,2.8c2.6-2.8,7.3-3.8,12.6-0.8c5.1,2.7,6.9,6.8,6.3,10.4l2.5,1.2
		c2.1-2.2,5.8-3.1,10.4-1.1c4.4,2,6.1,5.3,5.9,8.3l2.6,1.1l2.7,1c1.8-1.6,4.5-2.2,8-0.9c3.3,1.3,4.9,3.6,5.3,5.9l5.2,1.7
		c1.6-1.5,4.2-2.1,7.5-1c1.6,0.5,2.8,1.4,3.7,2.3c0.9,0.9,1.5,1.9,1.7,3l6.1,1.7c1.1-1.5,2.8-2.7,4.9-3.3c1-0.3,2.2-0.5,3.5-0.4
		c1.3,0,2.6,0.1,4.1,0.4c6,1.4,9,5.2,9.6,9.1l1.1,0.3c1.6-2,4.5-3.2,8.4-2.5c4.2,0.7,6.5,3.1,7.2,5.7c1.5,0.4,3.1,0.5,4.6,0.8
		c1.7-1.8,4.4-2.9,8.1-2.4c4.1,0.5,6.5,2.6,7.6,4.9l7.2,0.9c1-0.7,2.4-1.1,4.1-1c2.1,0.1,3.6,1.1,4.5,2.1l8.5,0.7
		c1.2-1.6,3.3-2.7,6.4-2.6c0.7,0,1.4,0.1,2,0.3v0.8c3.3,0.5,5.4,2.2,6.5,4.2l6.8-0.1c0.9-0.9,2.3-1.5,4.3-1.5
		c1.9-0.1,3.4,0.3,4.4,1.1l8.5-0.6c1.1-2.5,3.6-4.4,7.9-5c4.3-0.6,7.3,1,8.9,3.2c2-0.3,3.9-0.4,5.9-0.8c0.9-2,2.9-3.8,6.3-4.4
		c3.5-0.6,6,0.4,7.5,2c0,0,0.5-0.1,1.2-0.2c0.7-0.1,1.7-0.3,2.6-0.5c1.9-0.4,3.7-0.8,3.7-0.8c0.7-1.8,2.4-3.4,5.3-4
		c3-0.7,5.3,0.1,6.7,1.3l7.2-2c0.4-3.1,2.7-6.2,7.5-7.6c4.8-1.6,8.5-0.4,10.6,2l2.5-0.8c-0.1-3.4,2-6.9,7.1-9c5.2-2,9.2-0.6,11.4,2
		c1.4-0.5,2.8-1.2,4.1-1.8c-0.4-3.7,1.7-8,7.3-10.5c2.8-1.2,5.2-1.7,7.4-1.5c2.2,0.2,4,1.2,5.3,2.5l2.6-1.3c-0.2-1.4,0-3,0.9-4.4
		c0.4-0.7,1-1.4,1.7-2.1c0.7-0.7,1.6-1.4,2.6-2c4.1-2.4,7.7-1.8,9.9,0.1l2.4-1.4c-0.2-1,0-2,0.6-3c0.5-1,1.4-2.1,2.8-2.9
		c2.7-1.7,5.1-1.6,6.7-0.5C727.6,831.2,729.7,830,731.7,828.6z M687.4,817.8c-25.4,13.5-50.6,23-72.9,28.4c-2.8,0.6-5.5,1.3-8.2,1.9
		c-2.7,0.6-5.3,1.3-7.9,1.7c-2.6,0.5-5.1,0.9-7.5,1.3c-2.4,0.4-4.8,0.9-7.1,1.2c-4.6,0.6-9,1.1-13,1.7c-4,0.3-7.7,0.6-11.1,0.8
		c-1.7,0.1-3.3,0.3-4.7,0.4c-1.5,0-2.9,0.1-4.2,0.1c-2.6,0.1-4.8,0.1-6.6,0.2c-3.6,0.1-5.5,0.1-5.5,0.1s-1.9-0.1-5.5-0.1
		c-1.8,0-4-0.1-6.6-0.2c-1.3,0-2.7-0.1-4.2-0.1c-1.5-0.1-3.1-0.2-4.7-0.4c-3.3-0.3-7-0.5-11.1-0.8c-4-0.5-8.3-1.1-13-1.7
		c-2.3-0.2-4.7-0.7-7.1-1.2c-2.4-0.4-5-0.9-7.5-1.3c-2.6-0.4-5.2-1-7.9-1.7c-2.7-0.6-5.4-1.2-8.2-1.9c-22.3-5.4-47.6-14.9-72.9-28.4
		c-12.5-7-25.1-14.9-37.3-23.9c-12-9.1-23.7-19.1-34.6-29.9c-10.8-10.9-20.8-22.6-29.9-34.6c-9-12.1-16.9-24.7-23.9-37.3
		c-13.5-25.4-23-50.6-28.4-72.9c-0.6-2.8-1.3-5.5-1.9-8.2c-0.6-2.7-1.3-5.3-1.7-7.9c-0.5-2.6-0.9-5.1-1.3-7.5
		c-0.4-2.4-0.9-4.8-1.2-7.1c-0.6-4.6-1.1-9-1.7-13c-0.3-4-0.6-7.7-0.8-11.1c-0.1-1.7-0.3-3.3-0.4-4.7c0-1.5-0.1-2.9-0.1-4.2
		c-0.1-2.6-0.1-4.8-0.2-6.6c-0.1-3.6-0.1-5.5-0.1-5.5s0.1-1.9,0.1-5.5c0-1.8,0.1-4,0.2-6.6c0-1.3,0.1-2.7,0.1-4.2
		c0.1-1.5,0.2-3.1,0.4-4.7c0.3-3.3,0.5-7,0.8-11.1c0.5-4,1.1-8.3,1.7-13c0.2-2.3,0.7-4.7,1.2-7.1c0.4-2.4,0.9-5,1.3-7.5
		c0.4-2.6,1-5.2,1.7-7.9c0.6-2.7,1.2-5.4,1.9-8.2c5.4-22.3,14.9-47.6,28.4-72.9c7-12.5,14.9-25.1,23.9-37.3
		c9.1-12,19.1-23.7,29.9-34.6c10.9-10.8,22.6-20.8,34.6-29.9c12.1-9,24.7-16.9,37.3-23.9c25.4-13.5,50.6-23,72.9-28.4
		c2.8-0.6,5.5-1.3,8.2-1.9c2.7-0.6,5.3-1.3,7.9-1.7c2.6-0.5,5.1-0.9,7.5-1.3c2.4-0.4,4.8-0.9,7.1-1.2c4.6-0.6,9-1.1,13-1.7
		c4-0.3,7.7-0.6,11.1-0.8c1.7-0.1,3.3-0.3,4.7-0.4c1.5,0,2.9-0.1,4.2-0.1c2.6-0.1,4.8-0.1,6.6-0.2c3.6-0.1,5.5-0.1,5.5-0.1
		s1.9,0.1,5.5,0.1c1.8,0,4,0.1,6.6,0.2c1.3,0,2.7,0.1,4.2,0.1c1.5,0.1,3.1,0.2,4.7,0.4c3.3,0.3,7,0.5,11.1,0.8c4,0.5,8.3,1.1,13,1.7
		c2.3,0.2,4.7,0.7,7.1,1.2c2.4,0.4,5,0.9,7.5,1.3c2.6,0.4,5.2,1,7.9,1.7c2.7,0.6,5.4,1.2,8.2,1.9c22.3,5.4,47.6,14.9,72.9,28.4
		c12.5,7,25.1,14.9,37.3,23.9c12,9.1,23.7,19.1,34.6,29.9c10.8,10.9,20.8,22.6,29.9,34.6c9,12.1,16.9,24.7,23.9,37.3
		c13.5,25.4,23,50.6,28.4,72.9c0.6,2.8,1.3,5.5,1.9,8.2c0.6,2.7,1.3,5.3,1.7,7.9c0.5,2.6,0.9,5.1,1.3,7.5c0.4,2.4,0.9,4.8,1.2,7.1
		c0.6,4.6,1.1,9,1.7,13c0.3,4,0.6,7.7,0.8,11.1c0.1,1.7,0.3,3.3,0.4,4.7c0,1.5,0.1,2.9,0.1,4.2c0.1,2.6,0.1,4.8,0.2,6.6
		c0.1,3.6,0.1,5.5,0.1,5.5s-0.1,1.9-0.1,5.5c0,1.8-0.1,4-0.2,6.6c0,1.3-0.1,2.7-0.1,4.2c-0.1,1.5-0.2,3.1-0.4,4.7
		c-0.3,3.3-0.5,7-0.8,11.1c-0.5,4-1.1,8.3-1.7,13c-0.2,2.3-0.7,4.7-1.2,7.1c-0.4,2.4-0.9,5-1.3,7.5c-0.4,2.6-1,5.2-1.7,7.9
		c-0.6,2.7-1.2,5.4-1.9,8.2c-5.4,22.3-14.9,47.6-28.4,72.9c-7,12.5-14.9,25.1-23.9,37.3c-9.1,12-19.1,23.7-29.9,34.6
		c-10.9,10.8-22.6,20.8-34.6,29.9C712.5,803,699.9,810.8,687.4,817.8z"/>
	<path d="M821.3,575.3c-1,8.1,14.4,10.5,15.5,1.8c0.6-4.3-3.2-6.8-7.1-7.2C825.9,569.6,821.9,571.3,821.3,575.3z"/>
	<path d="M812.4,611.7c-1,3.9,2.1,6.9,5.9,8c3.7,1,8.2,0,9.2-4.1C829.5,607.1,814.2,603.8,812.4,611.7z"/>
	<path d="M796.1,648.5c-0.4,0.9-0.5,1.8-0.3,2.7c0.1,0.9,0.4,1.7,0.8,2.4c0.9,1.5,2.5,2.8,4.3,3.5c1.8,0.8,3.8,1.1,5.6,0.7
		c0.9-0.2,1.7-0.5,2.4-1.1c0.7-0.6,1.3-1.3,1.6-2.3C813.7,646.5,799,641.1,796.1,648.5z"/>
	<path d="M780.4,694.1c1.7,1,3.6,1.6,5.4,1.5c1.8-0.1,3.6-0.9,4.6-2.8c4.3-7.4-9.5-14.9-13.4-8c-1,1.8-1,3.5-0.3,5.1
		C777.4,691.6,778.8,693,780.4,694.1z"/>
	<path d="M767.5,725.7c5.3-6.7-7.3-16-12.2-9.8c-2.4,3.2-0.8,7.2,2.2,9.7C760.5,728.1,764.9,729.1,767.5,725.7z"/>
	<path d="M730.6,743.9c-5.8,5.5,4.6,17.2,10.8,11.3C747.6,749.3,736.4,738.4,730.6,743.9z"/>
	<path d="M693.6,769c-1.6,1.2-2.3,2.7-2.4,4.5c0,1.8,0.6,3.7,1.7,5.3c1.1,1.6,2.6,3,4.3,3.7c1.7,0.7,3.6,0.7,5.3-0.6
		C709.4,777,700,764.4,693.6,769z"/>
	<path d="M655.7,789c-7.1,3.2-0.9,17.6,6.7,14.1c3.8-1.8,3.8-6.3,2.1-9.8C662.8,789.8,659.3,787.3,655.7,789z"/>
	<path d="M624.7,811.4c-0.7-0.5-1.5-0.9-2.3-1.1c-0.9-0.2-1.8-0.2-2.7,0.1c-7.7,2.2-3.8,17.3,4.5,15c1-0.3,1.9-0.8,2.5-1.4
		c0.6-0.7,1.1-1.5,1.3-2.3c0.6-1.7,0.4-3.8-0.2-5.6C627.2,814.1,626.2,812.5,624.7,811.4z"/>
	<path d="M575.5,819c-7.9,1-6.5,16.6,2,15.5C586.1,833.5,583.4,818,575.5,819z"/>
	<path d="M530,821.3c-4-0.1-6.2,3.8-6.5,7.6c-0.2,3.9,1.7,7.9,6,8C538.1,837.1,538,821.5,530,821.3z"/>
	<path d="M486.8,818.2c-2-0.4-3.7,0.3-5,1.6c-1.3,1.2-2.2,3-2.6,4.9c-0.4,1.9-0.3,4,0.4,5.6c0.7,1.6,2.1,2.9,4.2,3.2
		C492.5,835.1,494.7,819.6,486.8,818.2z"/>
	<path d="M437.7,806.7c-7.5-3-13.7,11.4-5.6,14.6c4,1.6,7.4-1.4,8.7-5.1C442.1,812.6,441.5,808.3,437.7,806.7z"/>
	<path d="M369.2,770.9c-6.4-5-16.3,7.2-9.3,12.6C367,788.5,375.9,775.6,369.2,770.9z"/>
	<path d="M332.4,746c-2.8,2.7-4.1,7.1-1,10c6.3,6,16.7-5.6,10.9-11.2C339.3,742,335.2,743.3,332.4,746z"/>
	<path d="M313.7,710.1c-1.8,0-3.6,0.8-5.2,2c-1.6,1.2-2.8,2.7-3.4,4.5c-0.6,1.7-0.3,3.5,1,5.2c5.3,6.7,17.3-3.3,12.4-9.6
		C317.3,710.7,315.5,710.1,313.7,710.1z"/>
	<path d="M286.8,676c-3.4,1.8-6,5.6-3.9,9.2c4.3,7.4,17.6-0.8,13.7-7.6C294.5,674.1,290.2,674.1,286.8,676z"/>
	<path d="M265.8,649c3.1,8,17.5,1.7,14.6-5.7C277.5,636,262.7,641.1,265.8,649z"/>
	<path d="M268.5,608c-1.8-7.7-17.1-4.7-15.2,3.7c0.5,2.1,1.8,3.4,3.5,4c1.7,0.6,3.7,0.6,5.6,0.1c1.9-0.5,3.6-1.5,4.8-2.8
		C268.3,611.7,269,610,268.5,608z"/>
	<path d="M265.5,563.5c-0.6-7.8-16.2-7.3-15.6,1.2C250.5,573.1,266,571.3,265.5,563.5z"/>
	<path d="M251.5,519.3c-0.6,8.4,15,9,15.6,1.2C267.7,512.8,252.1,510.9,251.5,519.3z"/>
	<path d="M266.5,478.6c1.8-7.8-13.3-12-15.2-3.6C249.4,483.4,264.7,486.4,266.5,478.6z"/>
	<path d="M276.2,427.3c-1.8-0.8-3.8-1.1-5.6-0.7c-1.8,0.4-3.4,1.4-4.1,3.4c-3.1,8,11.5,13.4,14.5,6c0.7-1.9,0.4-3.6-0.5-5.1
		C279.6,429.4,278,428.1,276.2,427.3z"/>
	<path d="M288.5,387.2c-1.2,1.8-1.2,3.6-0.4,5.3c0.7,1.7,2.2,3.1,3.8,4.1c1.7,1,3.6,1.5,5.4,1.4c1.7-0.1,3.4-0.9,4.5-2.6
		C306.1,388.8,293.2,380,288.5,387.2z"/>
	<path d="M314.3,349.6c-5.7,6.5,6.6,16.3,11.9,10.2C331.4,353.7,319.9,343,314.3,349.6z"/>
	<path d="M350.8,310.8c-1.7,1.3-2.3,3.1-2.2,5c0.1,1.8,1,3.7,2.3,5.2c1.3,1.5,2.9,2.6,4.6,3.1c1.7,0.4,3.5,0.2,5.1-1.1
		C367,317.9,357.6,305.4,350.8,310.8z"/>
	<path d="M428.7,271.8c-0.7-1.8-2-3.4-3.5-4.4c-1.6-1-3.5-1.3-5.4-0.4c-8,3.6-1.2,17.7,6.2,14.4c1.9-0.9,2.9-2.3,3.3-4.1
		C429.7,275.7,429.4,273.7,428.7,271.8z"/>
	<path d="M457.7,256.1c-8.4,2.4-3.5,17.2,4.3,15.1C469.7,268.9,466,253.7,457.7,256.1z"/>
	<path d="M499.9,251.4c-4.2,0.5-5.7,4.6-5.1,8.5c0.6,3.8,3.2,7.5,7.2,7C509.9,265.9,508.4,250.3,499.9,251.4z"/>
	<path d="M543.3,249.6c-2.1,0-3.7,0.9-4.8,2.3c-1,1.5-1.6,3.5-1.5,5.4c0,2,0.5,3.9,1.6,5.3c1,1.5,2.5,2.5,4.5,2.6
		C551,265.5,551.8,249.8,543.3,249.6z"/>
	<path d="M583.2,252.8c-8.5-1.1-10.2,14.5-2.3,15.5C588.6,269.7,591.6,254.3,583.2,252.8z"/>
	<path d="M622.4,274.6c1.4-1.1,2.5-2.8,3.1-4.6c0.6-1.9,0.7-3.9,0.1-5.6c-0.6-1.7-1.8-3.1-3.9-3.6c-8.2-2.3-12,12.8-4.4,15
		C619.3,276.2,621,275.7,622.4,274.6z"/>
	<path d="M664.3,281.1c-7.7-3.5-13.9,10.9-6.8,14.1C664.5,298.8,671.8,284.9,664.3,281.1z"/>
	<path d="M702.6,305.3c-3.4-2.5-7.4-0.2-9.5,3c-2.2,3.3-2.6,7.5,0.6,9.8C700.1,322.6,709.5,310.1,702.6,305.3z"/>
	<path d="M741,327.3c-1.5-1.5-3.4-1.9-5.1-1.5c-1.8,0.4-3.5,1.5-4.8,3c-1.3,1.5-2.2,3.2-2.4,5c-0.2,1.8,0.2,3.6,1.6,5
		C736.1,344.2,747.3,333.3,741,327.3z"/>
	<path d="M770,372.8c3.2-2.3,5.1-6.4,2.4-9.7c-5.3-6.8-17.3,3.3-12.4,9.5C762.5,375.7,766.8,375.1,770,372.8z"/>
	<path d="M798.6,403.4c-2-3.8-6.6-3.6-9.9-1.7c-3.4,2-5.7,5.6-3.9,9.1C788.4,417.9,802.5,411.1,798.6,403.4z"/>
	<path d="M818.3,444.5c-1.3-4.1-5.8-4.7-9.5-3.3c-3.7,1.4-6.5,4.6-5.3,8.5C806.1,457.3,821.1,452.7,818.3,444.5z"/>
	<path d="M818.2,498c0.7,4,4.7,5.5,8.6,5c3.8-0.5,7.6-3.2,6.9-7.5C832.1,487,816.8,490,818.2,498z"/>
</g>
</svg>
